<?xml version="1.0" standalone="no"?>
<!DOCTYPE svg PUBLIC "-//W3C//DTD SVG 20010904//EN"
 "http://www.w3.org/TR/2001/REC-SVG-20010904/DTD/svg10.dtd">
<svg version="1.0" xmlns="http://www.w3.org/2000/svg"
 width="780.000000pt" height="780.000000pt" viewBox="0 0 780.000000 780.000000"
 preserveAspectRatio="xMidYMid meet">

<g transform="translate(0.000000,780.000000) scale(0.100000,-0.100000)"
fill="#000000" stroke="none">
<path d="M1835 6099 c-370 -13 -530 -69 -719 -248 -124 -119 -208 -267 -240
-423 -34 -163 -37 -350 -33 -1638 4 -1364 4 -1352 57 -1512 40 -118 120 -238
226 -339 145 -136 286 -199 519 -230 106 -14 3840 -22 4190 -9 247 9 381 32
494 86 203 95 378 284 447 483 57 165 57 146 61 1521 5 1502 1 1596 -76 1781
-76 181 -243 353 -426 440 -119 56 -248 79 -495 88 -259 10 -3736 10 -4005 0z
m4182 -463 c111 -17 166 -43 238 -114 67 -66 100 -133 117 -232 19 -109 19
-2671 0 -2780 -29 -172 -135 -294 -292 -337 -61 -17 -186 -18 -2230 -18 -2296
0 -2229 -1 -2328 47 -60 29 -144 114 -175 179 -52 107 -52 105 -52 1519 0
1410 0 1412 50 1516 58 118 187 207 326 223 41 5 1015 9 2164 10 1727 1 2106
-2 2182 -13z"/>
<path d="M2944 4458 c-85 -28 -190 -148 -235 -267 -52 -139 -62 -198 -63 -376
0 -147 3 -182 23 -260 46 -180 137 -324 237 -375 70 -36 162 -35 224 2 168 99
273 379 257 688 -14 270 -126 506 -272 575 -47 22 -127 28 -171 13z"/>
<path d="M4594 4458 c-85 -28 -190 -148 -235 -267 -52 -139 -62 -198 -63 -376
0 -146 3 -182 22 -260 46 -177 139 -325 238 -375 70 -36 162 -35 224 2 262
155 345 727 157 1083 -38 71 -117 154 -172 180 -47 22 -127 28 -171 13z"/>
</g>
</svg>
